<svg id="Layer_1" data-name="Layer 1" xmlns="http://www.w3.org/2000/svg" xmlns:xlink="http://www.w3.org/1999/xlink" viewBox="0 0 957 704"><defs><style>.cls-1,.cls-5{fill:none;}.cls-2{fill:#09c;}.cls-3{fill:#fff;}.cls-4{fill:#4b5d71;}.cls-5{stroke:#09c;stroke-miterlimit:10;stroke-width:5px;}.cls-6{clip-path:url(#clip-path);}.cls-7{fill:url(#radial-gradient);}.cls-8{fill:#8dbac6;}.cls-9{fill:#d4d6d6;}.cls-10{fill:#48656d;}.cls-11{fill:#0892b7;}.cls-12{fill:#839ea5;}.cls-13{fill:#c5dce2;}.cls-14{fill:#efefef;}.cls-15{fill:#e5e5e5;}.cls-16{fill:#d1d3d3;}.cls-17{fill:#a9d5e0;}.cls-18{fill:#aab0b2;}.cls-19{fill:#bcc0c1;}.cls-20{fill:#79a6b2;}.cls-21{fill:#acd3dd;}.cls-22{fill:#dae6ea;}.cls-23{fill:#0084a8;}.cls-24{fill:#849ea5;}.cls-25{fill:#b8d1d8;}.cls-26{fill:#e2f2f7;}.cls-27{fill:#0ea4cc;}.cls-28{fill:#75c2d3;}.cls-29{fill:#99b1b5;}</style><clipPath id="clip-path"><circle class="cls-1" cx="605.39" cy="353.32" r="184.76"/></clipPath><radialGradient id="radial-gradient" cx="478.58" cy="314.73" r="391.95" gradientUnits="userSpaceOnUse"><stop offset="0" stop-color="#4b5d71"/><stop offset="0.11" stop-color="#546578"/><stop offset="0.29" stop-color="#6c7a8b"/><stop offset="0.51" stop-color="#939daa"/><stop offset="0.77" stop-color="#c8ced4"/><stop offset="1" stop-color="#fff"/></radialGradient></defs><title>eydean-representor</title><g id="landing-image"><g id="block-chain"><path class="cls-2" d="M898.38,657A19.5,19.5,0,0,0,881,667.64H870.37a19.5,19.5,0,1,0,.34,17h10A19.5,19.5,0,1,0,898.38,657Z"/><circle class="cls-3" cx="853" cy="676.5" r="10.99"/><circle class="cls-2" cx="853" cy="676.5" r="8.15"/><circle class="cls-3" cx="898.38" cy="676.5" r="10.99"/><circle class="cls-2" cx="898.38" cy="676.5" r="8.15"/><path class="cls-2" d="M757.38,658A19.5,19.5,0,0,0,740,668.64H729.37a19.5,19.5,0,1,0,.34,17h10A19.5,19.5,0,1,0,757.38,658Z"/><circle class="cls-3" cx="712" cy="677.5" r="10.99"/><circle class="cls-2" cx="712" cy="677.5" r="8.15"/><circle class="cls-3" cx="757.38" cy="677.5" r="10.99"/><circle class="cls-2" cx="757.38" cy="677.5" r="8.15"/><path class="cls-2" d="M779.3,656.73a19,19,0,0,1-14.85-8.29l-3.87,6.48a18.9,18.9,0,0,1,14.34,9.13Z"/><path class="cls-2" d="M829.58,655.73a19,19,0,0,0,14.85-8.29l3.87,6.48A18.9,18.9,0,0,0,834,663.05Z"/><path class="cls-2" d="M616.38,659A19.5,19.5,0,0,0,599,669.64H588.37a19.5,19.5,0,1,0,.34,17h10A19.5,19.5,0,1,0,616.38,659Z"/><circle class="cls-3" cx="571" cy="678.5" r="10.99"/><circle class="cls-2" cx="571" cy="678.5" r="8.15"/><circle class="cls-3" cx="616.38" cy="678.5" r="10.99"/><circle class="cls-2" cx="616.38" cy="678.5" r="8.15"/><path class="cls-2" d="M638.3,657.73a19,19,0,0,1-14.85-8.29l-3.87,6.48a18.9,18.9,0,0,1,14.34,9.13Z"/><path class="cls-2" d="M688.58,656.73a19,19,0,0,0,14.85-8.29l3.87,6.48A18.9,18.9,0,0,0,693,664.05Z"/><path class="cls-2" d="M475.38,660A19.5,19.5,0,0,0,458,670.64H447.37a19.5,19.5,0,1,0,.34,17h10A19.5,19.5,0,1,0,475.38,660Z"/><circle class="cls-3" cx="430" cy="679.5" r="10.99"/><circle class="cls-2" cx="430" cy="679.5" r="8.15"/><circle class="cls-3" cx="475.38" cy="679.5" r="10.99"/><circle class="cls-2" cx="475.38" cy="679.5" r="8.15"/><path class="cls-2" d="M497.3,658.73a19,19,0,0,1-14.85-8.29l-3.87,6.48a18.9,18.9,0,0,1,14.34,9.13Z"/><path class="cls-2" d="M547.58,657.73a19,19,0,0,0,14.85-8.29l3.87,6.48A18.9,18.9,0,0,0,552,665.05Z"/><path class="cls-2" d="M334.38,661A19.5,19.5,0,0,0,317,671.64H306.37a19.5,19.5,0,1,0,.34,17h10A19.5,19.5,0,1,0,334.38,661Z"/><circle class="cls-3" cx="289" cy="680.5" r="10.99"/><circle class="cls-2" cx="289" cy="680.5" r="8.15"/><circle class="cls-3" cx="334.38" cy="680.5" r="10.99"/><circle class="cls-2" cx="334.38" cy="680.5" r="8.15"/><path class="cls-2" d="M356.3,659.73a19,19,0,0,1-14.85-8.29l-3.87,6.48a18.9,18.9,0,0,1,14.34,9.13Z"/><path class="cls-2" d="M406.58,658.73a19,19,0,0,0,14.85-8.29l3.87,6.48A18.9,18.9,0,0,0,411,666.05Z"/><path class="cls-2" d="M827.38,615A19.5,19.5,0,0,0,810,625.64H799.37a19.5,19.5,0,1,0,.34,17h10A19.5,19.5,0,1,0,827.38,615Z"/><circle class="cls-3" cx="782" cy="634.5" r="10.99"/><circle class="cls-2" cx="782" cy="634.5" r="8.15"/><circle class="cls-3" cx="827.38" cy="634.5" r="10.99"/><circle class="cls-2" cx="827.38" cy="634.5" r="8.15"/><path class="cls-2" d="M686.38,616A19.5,19.5,0,0,0,669,626.64H658.37a19.5,19.5,0,1,0,.34,17h10A19.5,19.5,0,1,0,686.38,616Z"/><circle class="cls-3" cx="641" cy="635.5" r="10.99"/><circle class="cls-2" cx="641" cy="635.5" r="8.15"/><circle class="cls-3" cx="686.38" cy="635.5" r="10.99"/><circle class="cls-2" cx="686.38" cy="635.5" r="8.15"/><path class="cls-2" d="M545.38,617A19.5,19.5,0,0,0,528,627.64H517.37a19.5,19.5,0,1,0,.34,17h10A19.5,19.5,0,1,0,545.38,617Z"/><circle class="cls-3" cx="500" cy="636.5" r="10.99"/><circle class="cls-2" cx="500" cy="636.5" r="8.15"/><circle class="cls-3" cx="545.38" cy="636.5" r="10.99"/><circle class="cls-2" cx="545.38" cy="636.5" r="8.15"/><path class="cls-2" d="M404.38,618A19.5,19.5,0,0,0,387,628.64H376.37a19.5,19.5,0,1,0,.34,17h10A19.5,19.5,0,1,0,404.38,618Z"/><circle class="cls-3" cx="359" cy="637.5" r="10.99"/><circle class="cls-2" cx="359" cy="637.5" r="8.15"/><circle class="cls-3" cx="404.38" cy="637.5" r="10.99"/><circle class="cls-2" cx="404.38" cy="637.5" r="8.15"/></g><g id="ai"><circle class="cls-4" cx="605.39" cy="353.32" r="213.84"/><circle class="cls-5" cx="605.39" cy="353.32" r="184.76"/><g class="cls-6"><path class="cls-2" d="M467.43,494.35c-1.08-.62,4.14-12.54,4-14s5.15-2.91,6.5-3.48q8.16-3.39,16.3-6.84c14.32-6.05,28.59-12.22,42.87-18.38q16.06-6.92,32.18-13.67c8.64-3.64,17.6-6.57,25.89-11,7.79-4.13,16.2-9.68,16.47-19.45.09-3-1.43-5-4-5.17s-4.45,1.68-4.63,4.8A9.29,9.29,0,0,1,599,414.6c-3.68,2.48-7.46,5.1-11.59,6.56-19.51,6.9-38.92,14.17-59.08,19.06a18.18,18.18,0,0,1-3.92.67,7,7,0,0,1-6.82-4.19,16.47,16.47,0,0,1-1.39-11c2.31-10.17.77-13.85-8.24-19.62.46-.76.91-1.54,1.4-2.29,1.73-2.66,1.38-4.76-1.15-6.74-1.54-1.2-3.09-2.37-4.74-3.63.76-1.44,1.46-2.73,2.14-4.05,4.34-8.44,2.34-15-5.9-19.58-2.26-1.25-4.46-2.61-6.71-3.9-1.6-.92-1.64-2-.59-3.44,3-4,6.18-7.76,8.77-11.95,4.87-7.86,9.5-15.88,14-24,3-5.37,2-10.41-2.22-14.85-.32-.34-.67-.66-1-1-5.75-5.07-6-5.17-2.63-12,3.67-7.48,5.28-15.56,7.62-23.44,4.19-14.12,11.52-26.29,23.51-35.19,3.66-2.71,7.83-4.73,11.77-7.07l.91.59c0,3.28-.15,6.56,0,9.83.86,15.14,3.36,29.93,9.84,43.81a52.47,52.47,0,0,0,25.4,26.05c14.11,6.82,28.07,14,41.72,21.73A94.09,94.09,0,0,1,659,360a65.26,65.26,0,0,1,13.8,42.76,115.79,115.79,0,0,0,2.77,28.69c3.14,14.06,6.93,25.1,18.08,34.79q13.67,11.88,27.45,23.64l13.51,11.57c2,1.75,4,3.54,6.07,5.25.59.49,4.46,4.49,4.79,4.48-2.79.08-75,51.14-146.15,47C533.86,554.32,469.08,495.31,467.43,494.35Z"/><path class="cls-2" d="M621.38,221.36c.06,8.32.14,16.63.15,24.95a2.4,2.4,0,0,1-.74,1.6,34.23,34.23,0,0,0-11.92,23,3,3,0,0,1-.35.76c-8.59,0-17.22.07-25.85,0-3,0-5.77-2.29-5.87-5.15-.24-7.11-.08-14.24-.08-21.49h3.8c.11.18.26.3.27.43.48,6.32,2.34,8,8.75,8,2.12,0,4.24.05,6.36,0,3.52-.12,6.05-2.27,6.31-5.74a66.5,66.5,0,0,0,0-9.88c-.26-3.4-2.7-5.53-6.11-5.67-2.74-.11-5.49-.08-8.24,0-4.35.06-6.81,2.49-7,6.84,0,.46-.06.93-.1,1.55h-4v-14c5.2-.9,10.4-1.94,15.66-2.66,6.05-.83,12.15-1.36,18.23-2a9.12,9.12,0,0,0,1.33-.38Z"/><path class="cls-2" d="M679.56,326.4h8.38c0,.82.12,1.57.12,2.32,0,9.42.05,18.84,0,28.26a7.93,7.93,0,0,1-1.17,3.66c-3,5.28-6.1,10.51-9.17,15.76.16.09,0,.05-.08,0-5.67-16.17-16.12-28.79-29.48-39.1-5.83-4.5-12.12-8.39-18.28-12.44a3.27,3.27,0,0,1-1.84-3.14c.11-5.57,0-11.14,0-17,.83.29,1.48.47,2.09.72a34.15,34.15,0,0,0,40-10.67,3.78,3.78,0,0,1,3.5-1.73c2.66.12,5.34,0,8,.06,3.51.1,6.22,2.34,6.3,5.73.18,7.6.05,15.21.05,23h-8.14c-.12-.19-.26-.31-.28-.45-.57-6.34-2.4-8-8.8-8-2,0-4.08-.06-6.12,0-4.07.19-6.49,2.74-6.55,6.8,0,2.67-.06,5.34,0,8a6.34,6.34,0,0,0,6.25,6.61c3,.13,6,.13,8.95,0a6.29,6.29,0,0,0,6.15-6.22C679.48,328,679.51,327.34,679.56,326.4Z"/><path class="cls-2" d="M572.34,227.39v23.17c0,4.7,0,9.41,0,14.12,0,6.85,4.46,11.29,11.38,11.31,7.45,0,14.91,0,22.36,0h2.56c.47,2.35.8,4.52,1.35,6.62a32.68,32.68,0,0,0,12,18.07,4.05,4.05,0,0,1,1.79,3.71c-.1,5.46,0,10.93,0,16.64-.71-.27-1.14-.41-1.54-.6-9.62-4.78-19.07-9.92-28.88-14.26-11.82-5.23-19.36-14.11-24-25.79-6.25-15.71-8-32.18-7.78-48.92a2.21,2.21,0,0,1,1.12-1.64,28.38,28.38,0,0,1,4.28-1.24C568.61,228.18,570.29,227.84,572.34,227.39Z"/><path class="cls-2" d="M673.93,288.74a34.36,34.36,0,0,0,1.8-25.37c.91-.05,1.58-.12,2.26-.12,6,0,12.08.06,18.12-.05a3.27,3.27,0,0,1,3.3,2c3.89,6.84,6,14.27,7.43,21.94a117.12,117.12,0,0,1,2.06,26.68,58.59,58.59,0,0,1-11.56,32.55l-4.78,6.57c-.07-1.42-.14-2.22-.14-3q0-24.6,0-49.2c0-7.62-4.34-11.94-12-11.94Z"/><path class="cls-2" d="M630.25,241.93c0-6,0-12,0-17.92,0-.53.09-1.06.16-1.89,26.1,4.2,47.4,16.45,64.56,36.05l-.24.79h-7.39c-3.93,0-7.85.06-11.77,0a3,3,0,0,1-2.24-1.12c-7.2-13.89-25.13-22.23-42.22-15.92A3.78,3.78,0,0,1,630.25,241.93Z"/><path class="cls-2" d="M645.38,259.79v-11c11.36-1,23,11.35,23.41,24.62.39,13.09-11.13,25.79-23.52,25.56,0-3.41-.09-6.84.09-10.25,0-.5,1.28-1.12,2.06-1.37a14.17,14.17,0,0,0,7-22.21A14.7,14.7,0,0,0,645.38,259.79Z"/><path class="cls-2" d="M640.87,248.74c0,3.37-.07,6.58,0,9.78.06,1.73-1.29,1.52-2.21,1.83a14,14,0,0,0-5.64,23.53,19,19,0,0,0,6,3.47c1.41.58,1.91,1.17,1.86,2.66-.12,3,0,5.92,0,8.85-11.27,1.13-23.09-11.38-23.53-24.59C616.93,261.24,628.67,248.31,640.87,248.74Z"/><path class="cls-2" d="M668.79,330.55c-7,.09-6.45.11-6.43-6.31,0-6.68-.77-6.6,6.63-6.6,7,0,6.16.16,6.18,6.1,0,1.17,0,2.34,0,3.51,0,2.71-.58,3.26-3.32,3.3C670.82,330.57,669.81,330.55,668.79,330.55Z"/><path class="cls-2" d="M591.46,249.15c-6.4.06-6.34.44-6.32-6.2,0-7.27-.3-6.58,6.59-6.59,6.61,0,6.29-.48,6.27,6.17C598,249.59,598.57,249.19,591.46,249.15Z"/><path class="cls-2" d="M643.09,268.25a5.58,5.58,0,1,1-5.62,5.5A5.65,5.65,0,0,1,643.09,268.25Z"/></g></g><g id="network"><path class="cls-7" d="M359.23,471.56l88.19,44.53-81.5,41.46L239.49,538.13,115.1,608.44l-2.46-4.36,125.9-71.16,126.54,19.45,71.28-36.27-81.17-41-10.77-30.48,4.72-1.67ZM160,396.21l-3.59,3.47,88,91.12L380.86,368.33l-3.34-3.72L244.58,483.86ZM173,196l68.21,86.67,93.33-9.1,47.22,42.61,3.35-3.72L336.28,268.4l-92.8,9.05-68.89-87.54-43.32,18.55-54-71H8.49v5h66.3l54.86,72.14ZM345.35,94.7l-13,67.17,50.15-4.21,48.79,50.23,3.59-3.49-50.45-51.92-45.92,3.85,13.54-69.92-65.82,28.05,2,4.6Zm184-22.41V96l-28.53,51.18,4.37,2.44,29.16-52.32V74.55L573.7,40l-3.3-3.75ZM694.07,21,655.2,50.5l19.86,40.06-16.12,33.16,4.5,2.19,17.19-35.37L661.51,52l35.58-27ZM866,92.28,789.69,51.06l-2.38,4.39L849,88.82l-21.57,2L742.36,157l3.07,3.95,84-65.32Zm78,53.57H843l-31.45,84.24,4.68,1.75,30.24-81H944ZM879.52,287.92l27.31,8.65,1.51-4.77-30-9.5-34.27,30.16,3.3,3.76Zm4.77,158.92,21.77-10.08,18.64,58.78,4.77-1.51-20.36-64.2-23.62,10.94-38.92-41.95-3.67,3.4Zm-57,97.23-25.73-45.91-4.37,2.44,26.75,47.73,123.41,34.55,1.35-4.81Z"/><circle class="cls-2" cx="431.88" cy="204.4" r="7.72"/><circle class="cls-2" cx="383.83" cy="314.06" r="7.72"/><circle class="cls-2" cx="376.11" cy="368.25" r="7.72"/><circle class="cls-8" cx="244.38" cy="487.16" r="7.72"/><circle class="cls-9" cx="156.38" cy="397.39" r="7.72"/><circle class="cls-10" cx="347.8" cy="442.41" r="7.72"/><circle class="cls-11" cx="358.3" cy="473.89" r="7.72"/><circle class="cls-12" cx="366.02" cy="553.55" r="7.72"/><circle class="cls-13" cx="238.56" cy="536.06" r="7.72"/><circle class="cls-2" cx="442.02" cy="517.98" r="7.72"/><circle class="cls-14" cx="847.66" cy="314.06" r="7.72"/><circle class="cls-15" cx="814.92" cy="228.92" r="7.72"/><circle class="cls-16" cx="744.51" cy="157.29" r="7.72"/><circle class="cls-17" cx="660.6" cy="125.91" r="7.72"/><circle class="cls-18" cx="676.15" cy="92.91" r="7.72"/><circle class="cls-19" cx="660.6" cy="51.06" r="7.72"/><circle class="cls-15" cx="695.39" cy="24.05" r="7.72"/><circle class="cls-2" cx="505.05" cy="145.85" r="7.72"/><circle class="cls-20" cx="532.18" cy="98.3" r="7.72"/><circle class="cls-21" cx="532.18" cy="73.46" r="7.72"/><circle class="cls-22" cx="571.47" cy="39.49" r="7.72"/><circle class="cls-23" cx="334.77" cy="271.46" r="7.72"/><circle class="cls-24" cx="242.8" cy="281.41" r="7.72"/><circle class="cls-25" cx="172.33" cy="193.82" r="7.72"/><circle class="cls-26" cx="130.12" cy="212.12" r="7.72"/><circle class="cls-27" cx="385.14" cy="157.29" r="7.72"/><circle class="cls-28" cx="334.77" cy="157.29" r="7.72"/><circle class="cls-29" cx="290.12" cy="115.23" r="7.72"/></g></g></svg>