<svg id="Layer_1" data-name="Layer 1" xmlns="http://www.w3.org/2000/svg" viewBox="0 0 1920 500"><defs><style>.cls-1{fill:#4b5d71;}.cls-2{fill:#09c;}.cls-3{fill:none;stroke:#09c;stroke-miterlimit:10;stroke-width:9px;}</style></defs><title>footer</title><path class="cls-1" d="M0,401.75C417.23,68.49,479.2,581.55,856.57,262.24,1237.94-60.45,1293.45,835.9,1920,348.72v914.64H0Z"/><g id="sun"><circle class="cls-2" cx="1540.53" cy="178.92" r="120.99"/><line class="cls-3" x1="1540.53" y1="44.29" x2="1540.53" y2="1.13"/><line class="cls-3" x1="1505.69" y1="48.88" x2="1494.52" y2="7.19"/><line class="cls-3" x1="1473.22" y1="62.33" x2="1451.64" y2="24.95"/><line class="cls-3" x1="1445.34" y1="83.73" x2="1414.82" y2="53.2"/><line class="cls-3" x1="1423.94" y1="111.61" x2="1386.56" y2="90.02"/><line class="cls-3" x1="1410.5" y1="144.08" x2="1368.8" y2="132.9"/><line class="cls-3" x1="1405.91" y1="178.92" x2="1362.74" y2="178.92"/><line class="cls-3" x1="1410.5" y1="213.76" x2="1368.8" y2="224.94"/><line class="cls-3" x1="1423.94" y1="246.23" x2="1386.56" y2="267.82"/><line class="cls-3" x1="1445.34" y1="274.12" x2="1414.82" y2="304.64"/><line class="cls-3" x1="1473.22" y1="295.51" x2="1451.64" y2="332.89"/><line class="cls-3" x1="1505.69" y1="308.96" x2="1494.52" y2="350.65"/><line class="cls-3" x1="1540.53" y1="313.55" x2="1540.53" y2="356.71"/><line class="cls-3" x1="1575.38" y1="308.96" x2="1586.55" y2="350.65"/><line class="cls-3" x1="1607.85" y1="295.51" x2="1629.43" y2="332.89"/><line class="cls-3" x1="1635.73" y1="274.12" x2="1666.25" y2="304.64"/><line class="cls-3" x1="1657.12" y1="246.23" x2="1694.51" y2="267.82"/><line class="cls-3" x1="1670.57" y1="213.76" x2="1712.27" y2="224.94"/><line class="cls-3" x1="1675.16" y1="178.92" x2="1718.33" y2="178.92"/><line class="cls-3" x1="1670.57" y1="144.08" x2="1712.27" y2="132.9"/><line class="cls-3" x1="1657.12" y1="111.61" x2="1694.51" y2="90.02"/><line class="cls-3" x1="1635.73" y1="83.73" x2="1666.25" y2="53.2"/><line class="cls-3" x1="1607.85" y1="62.33" x2="1629.43" y2="24.95"/><line class="cls-3" x1="1575.38" y1="48.88" x2="1586.55" y2="7.19"/></g><g id="logo"><circle class="cls-2" cx="243.22" cy="379.08" r="20.39"/><path class="cls-2" d="M243.22,424.3a45.22,45.22,0,1,1,45.21-45.22A45.27,45.27,0,0,1,243.22,424.3Zm0-86A40.79,40.79,0,1,0,284,379.08,40.84,40.84,0,0,0,243.22,338.3Z"/><circle class="cls-1" cx="274.25" cy="348.72" r="16.53"/><path class="cls-2" d="M274.25,367.34a18.62,18.62,0,1,1,18.61-18.62A18.64,18.64,0,0,1,274.25,367.34Zm0-33.06a14.44,14.44,0,1,0,14.43,14.44A14.46,14.46,0,0,0,274.25,334.28Z"/></g></svg>