<?xml version="1.0" encoding="utf-8"?>
<!-- Generator: Adobe Illustrator 22.1.0, SVG Export Plug-In . SVG Version: 6.00 Build 0)  -->
<svg version="1.1" id="Layer_1" xmlns="http://www.w3.org/2000/svg" xmlns:xlink="http://www.w3.org/1999/xlink" x="0px" y="0px"
	 viewBox="0 0 1920 708" style="enable-background:new 0 0 1920 708;" xml:space="preserve">
<style type="text/css">
	.st0{fill:none;stroke:#0099CC;stroke-miterlimit:10;}
	.st1{fill:none;stroke:#0099CC;stroke-width:4;stroke-miterlimit:10;}
	.st2{fill:#0099CC;}
	.st3{fill:none;stroke:#0099CC;stroke-width:4;stroke-linecap:round;stroke-miterlimit:10;}
</style>
<g id="tree">
	<g>
		<g>
			<line class="st0" x1="496.1" y1="212.4" x2="661.5" y2="76.2"/>
			<line class="st1" x1="496.1" y1="455.2" x2="496.1" y2="212.4"/>
			<line class="st1" x1="496.1" y1="647" x2="496.1" y2="455.2"/>
			<line class="st0" x1="496.1" y1="216.8" x2="410.7" y2="131.4"/>
			<polyline class="st0" points="685.4,271 496.3,460.1 282.9,246.7 			"/>
			<polygon class="st0" points="288.8,440.4 347.8,369 265.5,322.4 282.6,243.2 371.1,258.7 445.7,319.3 282.6,243.2 347.8,369 
				496.9,460.6 			"/>
			<line class="st0" x1="288.8" y1="440.4" x2="264.3" y2="325.6"/>
			<polygon class="st0" points="576.1,334.8 684.8,271.1 624.3,226.1 			"/>
			<polygon class="st0" points="740.7,226.1 624.3,226.1 684.8,271.1 			"/>
			<polygon class="st0" points="729.9,339.5 740.7,226.1 667.8,426.4 			"/>
			<polygon class="st0" points="423.9,193.5 495.4,207.5 475.2,137.6 405.3,128.3 			"/>
			<line class="st0" x1="475.2" y1="137.6" x2="423.9" y2="193.5"/>
			<path class="st0" d="M554.4,101.9L661.5,77l-3.1,69.9C658.4,146.9,553.8,101.9,554.4,101.9z"/>
			<polygon class="st0" points="495.4,207.5 554.4,101.9 658.4,146.9 			"/>
			<polyline class="st0" points="347,368.2 445.7,319.3 496.9,460.6 576.1,331.7 			"/>
			<polyline class="st0" points="575.3,334 667.8,426.4 496.9,460.6 729.9,339.5 684.8,271.1 			"/>
		</g>
	</g>
	<g>
		<g>
			<circle class="st2" cx="496.9" cy="455.2" r="22.5"/>
			<circle class="st2" cx="283.4" cy="243.2" r="12.4"/>
			<circle class="st2" cx="265.5" cy="322.4" r="12.4"/>
			<circle class="st2" cx="371.1" cy="258.7" r="12.4"/>
			<circle class="st2" cx="291.9" cy="442" r="12.4"/>
			<circle class="st2" cx="347.8" cy="369" r="12.4"/>
			<circle class="st2" cx="445.7" cy="319.3" r="12.4"/>
			<circle class="st2" cx="685.4" cy="271" r="11.1"/>
			<circle class="st2" cx="576.7" cy="331.5" r="11.1"/>
			<circle class="st2" cx="668.3" cy="426.3" r="11.1"/>
			<circle class="st2" cx="730.5" cy="339.3" r="11.1"/>
			<circle class="st2" cx="741.3" cy="225.9" r="11.1"/>
			<circle class="st2" cx="555" cy="101.7" r="11.1"/>
			<circle class="st2" cx="624.9" cy="225.9" r="11.1"/>
			<circle class="st2" cx="424.5" cy="193.3" r="11.1"/>
			<circle class="st2" cx="475.8" cy="137.4" r="11.1"/>
			<circle class="st2" cx="659" cy="146.7" r="11.1"/>
			<circle class="st2" cx="661.7" cy="76.4" r="16.1"/>
			<circle class="st2" cx="410.7" cy="131.4" r="14"/>
			<circle class="st2" cx="496.1" cy="207.5" r="14"/>
		</g>
	</g>
</g>
<line class="st3" x1="496.7" y1="645" x2="1676.8" y2="645"/>
<path class="st2" d="M642.8,657c0,0,4.5-9.7,6.6-13.7c9.2-17.6,12.6-35-1.2-52.1c-1-1.3-2.3-3.3-2-4.6c0.4-1.7,0.5-3,0.3-4.2
	c0.8-0.3,2.3-1.7,2.3-1.7c-1.1-1.1-2.9,0-2.9,0l0,0c-1.8-3.1-6.4-3.4-9.1-3.2c-4.3,0.3-11.2,3.9-12.1,7.3
	c-3.2,11.5-5.7,23.6-5.6,35.4c0.1,11.5,3.6,23,5.8,35.1c1.7,1.7,1.2,1.8,1.2,1.8c-4.2,13.5-8,25.6-11.7,37.7
	c0.6,0.2,1.1,0.4,1.7,0.5c4.5-9.3,8.9-18.6,13.9-28.9c2.6,3,4.4,5,6.5,7.3c1-2.4,1.5-4,2.6-6.6c5.1,10.5,9.6,19.8,14.2,29.1
	c0.5-0.2,0.9-0.4,1.4-0.6c-3.4-11.8-10.5-36.5-10.5-36.5L642.8,657z"/>
<g>
	<g>
		<path class="st2" d="M741.1,645.2c0.6,0,1.2,0,1.7,0C742.3,645.2,741.7,645.2,741.1,645.2z"/>
		<path class="st2" d="M728.9,645c-1-9.6-2.7-19.3-2.7-29c-0.1-8.3,4.8-13.8,12.4-16.8c-4.9,1.9-9.8,3.9-15,5.9
			c-3.4-5.3-6.8-10.5-10.4-16.1c-2.9,7.7,10.3,16.9-4.2,22.8c1.3-4.7,2.2-8.1,3.1-11.6c-13,12.3-23.8,25.7-26.5,43.8
			c-1.1,7.4,5.4,22.4,9.7,21.8c-0.9,0.1,0.2,3.7,0.6,4.1c0.7-2.4,1.2-4.4,3.9-5.3c2-0.7,4.2-0.6,6.2-0.9c6.6-1,11.7-6.1,16.7-10.6
			s11.1-8.9,17.7-8C736.5,645.2,732.7,645.1,728.9,645z"/>
	</g>
</g>
<path class="st2" d="M1322.2,155.7c10.2,0,42.8-3.4,54.8-9.3c12-5.9,29.5-12.8,37.5-14.6c8-1.7,32,1.6,41.4,1.7
	c9.4,0.1,14.6-0.5,14.6-0.5s5.2-7.5,10.2-10.6c4.9-3,19.4-5.1,19.4-5.1s0.6-12.7,21.4-26.2c20.9-13.4,56.4-47.8,59.5-56.3
	c3.1-8.5,13.7-22.8,14.8-26.6c1.2-3.8,6.8,6.1,1,18.7c-5.9,12.5-12.9,26-14.8,33.9c-1.9,8-12.2,35.7-36,47.8s-35.3,18.8-34.1,21.9
	c1.2,3.1,6.5,7,12.1,5.5c5.5-1.5,19.9-8,21.4-4.9c1.6,3.1-4.8,32-22.4,38.9c-17.5,6.9-37.3,1.9-40-0.2c-2.7-2.1,12.4-5.9,9.7-11.3
	c-2.7-5.4-10.4-2-15.3-5.5c-4.9-3.5-17.2-0.4-20.4-0.1c-3.2,0.4,1.3-3,1.3-3s-26,4.2-36.8,6.3c-10.8,2.1-37.1-0.2-44.5,2.7
	c-7.4,2.9-71.3,3-74.4-1.9"/>
</svg>
