<?xml version="1.0" encoding="utf-8"?>
<!-- Generator: Adobe Illustrator 22.1.0, SVG Export Plug-In . SVG Version: 6.00 Build 0)  -->
<svg version="1.1" id="Layer_1" xmlns="http://www.w3.org/2000/svg" xmlns:xlink="http://www.w3.org/1999/xlink" x="0px" y="0px"
	 viewBox="0 0 1920 1017" style="enable-background:new 0 0 1920 1017;" xml:space="preserve">
<style type="text/css">
	.st0{fill:#4B5D71;}
	.st1{fill:#0099CC;}
</style>
<g>
	<path class="st0" d="M358.6,266.3c-91.2,0-165.2-74-165.2-165.2c0-37.6,12.6-72.2,33.7-100c-39.4,30.2-64.8,77.7-64.8,131.2
		c0,91.2,74,165.2,165.2,165.2c53.6,0,101.3-25.6,131.5-65.2C431.2,253.7,396.4,266.3,358.6,266.3z"/>
	<path class="st1" d="M1184.2,402.5h-10.9v-10.9c0-1.7-1.4-3.1-3.1-3.1l0,0c-1.7,0-3.1,1.4-3.1,3.1v10.9h-10.9
		c-1.7,0-3.1,1.4-3.1,3.1v0c0,1.7,1.4,3.1,3.1,3.1h10.9v10.9c0,1.7,1.4,3.1,3.1,3.1l0,0c1.7,0,3.1-1.4,3.1-3.1v-10.9h10.9
		c1.7,0,3.1-1.4,3.1-3.1v0C1187.3,403.9,1185.9,402.5,1184.2,402.5z"/>
	<path class="st0" d="M510,480.8h-10.9v-10.9c0-1.7-1.4-3.1-3.1-3.1l0,0c-1.7,0-3.1,1.4-3.1,3.1v10.9h-10.9c-1.7,0-3.1,1.4-3.1,3.1
		v0c0,1.7,1.4,3.1,3.1,3.1H493v10.9c0,1.7,1.4,3.1,3.1,3.1l0,0c1.7,0,3.1-1.4,3.1-3.1v-10.9H510c1.7,0,3.1-1.4,3.1-3.1v0
		C513.1,482.1,511.7,480.8,510,480.8z"/>
	<path class="st0" d="M377.9,799.7h-10.9v-10.9c0-1.7-1.4-3.1-3.1-3.1l0,0c-1.7,0-3.1,1.4-3.1,3.1v10.9H350c-1.7,0-3.1,1.4-3.1,3.1
		v0c0,1.7,1.4,3.1,3.1,3.1h10.9v10.9c0,1.7,1.4,3.1,3.1,3.1l0,0c1.7,0,3.1-1.4,3.1-3.1v-10.9h10.9c1.7,0,3.1-1.4,3.1-3.1v0
		C381,801.1,379.6,799.7,377.9,799.7z"/>
	<path class="st1" d="M311.2,594.5h-10.9v-10.9c0-1.7-1.4-3.1-3.1-3.1l0,0c-1.7,0-3.1,1.4-3.1,3.1v10.9h-10.9
		c-1.7,0-3.1,1.4-3.1,3.1v0c0,1.7,1.4,3.1,3.1,3.1h10.9v10.9c0,1.7,1.4,3.1,3.1,3.1l0,0c1.7,0,3.1-1.4,3.1-3.1v-10.9h10.9
		c1.7,0,3.1-1.4,3.1-3.1v0C314.2,595.9,312.9,594.5,311.2,594.5z"/>
	<path class="st1" d="M983.3,136.3h-10.9v-10.9c0-1.7-1.4-3.1-3.1-3.1l0,0c-1.7,0-3.1,1.4-3.1,3.1v10.9h-10.9
		c-1.7,0-3.1,1.4-3.1,3.1v0c0,1.7,1.4,3.1,3.1,3.1h10.9v10.9c0,1.7,1.4,3.1,3.1,3.1l0,0c1.7,0,3.1-1.4,3.1-3.1v-10.9h10.9
		c1.7,0,3.1-1.4,3.1-3.1v0C986.4,137.7,985,136.3,983.3,136.3z"/>
	<path class="st0" d="M750.4,311.5h-10.9v-10.9c0-1.7-1.4-3.1-3.1-3.1l0,0c-1.7,0-3.1,1.4-3.1,3.1v10.9h-10.9
		c-1.7,0-3.1,1.4-3.1,3.1v0c0,1.7,1.4,3.1,3.1,3.1h10.9v10.9c0,1.7,1.4,3.1,3.1,3.1l0,0c1.7,0,3.1-1.4,3.1-3.1v-10.9h10.9
		c1.7,0,3.1-1.4,3.1-3.1v0C753.5,312.9,752.1,311.5,750.4,311.5z"/>
	<path class="st0" d="M175.7,385.5h-10.9v-10.9c0-1.7-1.4-3.1-3.1-3.1h0c-1.7,0-3.1,1.4-3.1,3.1v10.9h-10.9c-1.7,0-3.1,1.4-3.1,3.1
		v0c0,1.7,1.4,3.1,3.1,3.1h10.9v10.9c0,1.7,1.4,3.1,3.1,3.1h0c1.7,0,3.1-1.4,3.1-3.1v-10.9h10.9c1.7,0,3.1-1.4,3.1-3.1v0
		C178.8,386.9,177.4,385.5,175.7,385.5z"/>
	<path class="st1" d="M31,996.4H20.1v-10.9c0-1.7-1.4-3.1-3.1-3.1h0c-1.7,0-3.1,1.4-3.1,3.1v10.9H3.1c-1.7,0-3.1,1.4-3.1,3.1l0,0
		c0,1.7,1.4,3.1,3.1,3.1H14v10.9c0,1.7,1.4,3.1,3.1,3.1h0c1.7,0,3.1-1.4,3.1-3.1v-10.9H31c1.7,0,3.1-1.4,3.1-3.1l0,0
		C34.1,997.8,32.7,996.4,31,996.4z"/>
	<path class="st1" d="M598.1,71.4h-10.9V60.5c0-1.7-1.4-3.1-3.1-3.1l0,0c-1.7,0-3.1,1.4-3.1,3.1v10.9h-10.9c-1.7,0-3.1,1.4-3.1,3.1
		v0c0,1.7,1.4,3.1,3.1,3.1h10.9v10.9c0,1.7,1.4,3.1,3.1,3.1l0,0c1.7,0,3.1-1.4,3.1-3.1V77.5h10.9c1.7,0,3.1-1.4,3.1-3.1v0
		C601.2,72.8,599.8,71.4,598.1,71.4z"/>
</g>
</svg>
