<?xml version="1.0" encoding="utf-8"?>
<!-- Generator: Adobe Illustrator 22.1.0, SVG Export Plug-In . SVG Version: 6.00 Build 0)  -->
<svg version="1.1" id="Layer_1" xmlns="http://www.w3.org/2000/svg" xmlns:xlink="http://www.w3.org/1999/xlink" x="0px" y="0px"
	 viewBox="0 0 1920 1655" style="enable-background:new 0 0 1920 1655;" xml:space="preserve">
<style type="text/css">
	.st0{fill:#4B5D71;}
	.st1{fill:#FFFFFF;}
	.st2{fill:#0099CC;}
</style>
<rect y="0.1" class="st0" width="1920" height="1059"/>
<g id="locker">
	<path class="st1" d="M1153.7,76.3c-223.3,0-404.4,181.1-404.4,404.4h112c0-161.5,130.9-292.4,292.4-292.4s292.4,130.9,292.4,292.4
		V770H768.6c-82.9,0-150.2,67.2-150.2,150.2v584.9c0,82.9,67.2,150.2,150.2,150.2h639.3c82.9,0,150.2-67.2,150.2-150.2V860v-90
		V480.7C1558.1,257.4,1377.1,76.3,1153.7,76.3z"/>
	<path class="st0" d="M1227,1099.9c0-76.6-62.1-138.7-138.7-138.7s-138.7,62.1-138.7,138.7c0,57.4,34.9,106.7,84.6,127.7v90.9
		c0,29.9,24.2,54.1,54.1,54.1l0,0c29.9,0,54.1-24.2,54.1-54.1v-90.9C1192.1,1206.6,1227,1157.3,1227,1099.9z"/>
</g>
<path class="st2" d="M1114.5,1410.4c-4.2-8.4-8.3-16.8-13.1-26.4c-2.2,2.9-3.5,4.7-5.2,7c-0.8-2.2-1.4-3.8-2.6-6.8
	c-4.7,10.1-8.9,18.9-13.1,27.8c-0.5-0.1-1-0.3-1.4-0.4c2.5-8.5,4.8-17,7.7-25.4c2.8-8.4,1.8-15.6-2.7-23.5c-8.6-15-10.8-30.6,1-45.7
	c2-2.5,1.1-7.4,3.2-9.6c5.9-6.4,15.4-4,18.6,4.2c6.3,16,7.2,32.8,2.1,48.8c-3.8,11.7-2.5,21.8,1.2,32.5c1.9,5.6,3.7,11.4,5.6,17
	C1115.4,1410,1114.9,1410.2,1114.5,1410.4z"/>
<path class="st2" d="M227.6,1607.2c0,0-3.4-4.1-3.5-11.5c-0.1-7.3,0-13.9-2.7-18.1c-2.7-4.2-10.4-14.9-13.9-23.8
	c-3.4-8.9-6.6-16.6-8.1-16.8c-1.6-0.2-6.8,19.6-3.7,31.9c3,12.3,5.2,14.2,6.3,17.8c1.1,3.5-0.5,6.7,0.8,14.4
	c1.4,7.7,5.2,15.6,5.6,17.1c0.4,1.5-1.3,3.7-2.9,5.3c-1.7,1.6-6.3,3.8-8.6,4.8c-2.2,1-4.2,1.2-3.8,2.4c0.4,1.2,1.3,4.7,3.4,6.1
	c2.1,1.4,5.1,1.5,6.7,1.5c1.6-0.1,2.5-5.6,4.4-6.2c1.9-0.6,10.4-3.7,12-3.7c1.6,0,6.1,2.7,12.1,0.6c6.1-2.2,8.1-1.9,11.9-1.2
	c3.8,0.7,12.3,3.7,13.2,3.5c0.9-0.3-1.5-3.9-3.5-5.4c-3-2.2-3.8-2.3-5.8-4.1c-2-1.7-6.8-4.3-8.5-3.9c0,0,1.6-4.2,4-6
	c2.3-1.8,4.5-4.6,5.8-5.1c1.3-0.4,3.6-0.7,3.9-1.2c0.3-0.5-4.8-0.8-4.8-0.8s-1.6-3.2-8.1-2.7
	C233.4,1602.5,229.6,1606.3,227.6,1607.2z"/>
</svg>
