<?xml version="1.0" standalone="no"?>
<!DOCTYPE svg PUBLIC "-//W3C//DTD SVG 20010904//EN"
 "http://www.w3.org/TR/2001/REC-SVG-20010904/DTD/svg10.dtd">
<svg version="1.0" xmlns="http://www.w3.org/2000/svg"
 width="600.000000pt" height="276.000000pt" viewBox="0 0 600.000000 276.000000"
 preserveAspectRatio="xMidYMid meet">
<metadata>
Created by potrace 1.15, written by Peter Selinger 2001-2017
</metadata>
<g transform="translate(0.000000,276.000000) scale(0.100000,-0.100000)"
fill="#000000" stroke="none">
<path d="M2193 2697 l-143 -61 0 -217 0 -216 78 -33 c42 -17 81 -35 85 -39 4
-4 -30 -24 -75 -43 l-83 -35 0 -218 0 -218 83 -35 c45 -19 79 -39 75 -43 -4
-4 -43 -22 -86 -40 l-77 -32 2 -216 3 -216 180 -78 180 -78 180 78 180 78 3
113 c1 61 5 112 8 112 3 0 49 -19 102 -42 53 -23 104 -41 112 -40 19 1 340
140 357 154 9 7 13 43 13 114 0 57 2 104 6 104 3 0 47 -18 99 -40 52 -22 100
-40 107 -40 7 0 93 34 191 76 l177 77 -2 213 -3 214 -173 75 c-96 41 -181 75
-191 75 -19 0 -339 -135 -358 -152 -9 -7 -13 -43 -13 -114 0 -57 -4 -104 -8
-104 -5 0 -51 18 -103 41 -106 46 -96 47 -236 -14 l-82 -36 -3 115 -3 116 -88
37 -88 38 78 33 c43 19 84 38 91 43 9 8 12 59 10 221 l-3 211 -140 62 c-133
58 -144 61 -220 61 -76 1 -87 -3 -222 -61z m350 -23 c73 -31 133 -57 135 -59
1 -1 -57 -28 -131 -60 l-134 -57 -124 53 c-68 29 -127 55 -132 59 -5 5 207
105 251 119 2 1 63 -24 135 -55z m-285 -169 l132 -57 0 -164 0 -164 -32 13
c-18 8 -84 36 -145 62 l-113 48 0 165 c0 127 3 163 13 159 6 -3 72 -31 145
-62z m472 -98 l0 -163 -62 -26 c-35 -15 -100 -42 -146 -62 l-82 -35 2 165 3
166 135 58 c74 32 138 59 143 59 4 1 7 -72 7 -162z m987 -319 c68 -29 123 -55
123 -58 0 -7 -241 -110 -258 -110 -16 0 -262 103 -262 110 0 7 242 109 260
110 8 0 70 -23 137 -52z m-1047 -58 c0 -6 -239 -110 -255 -110 -17 -1 -255
102 -255 110 0 9 120 60 140 60 8 0 37 -9 65 -21 l50 -21 55 24 55 25 73 -31
c39 -16 72 -33 72 -36z m-280 -328 c0 -154 -1 -163 -18 -157 -11 3 -75 29
-143 59 l-124 53 -3 166 -2 165 145 -61 145 -62 0 -163z m333 -42 c-7 -6 -213
-95 -267 -116 -14 -5 -16 13 -16 158 l0 164 143 60 142 61 3 -160 c1 -88 -1
-163 -5 -167z m1177 166 l0 -164 -132 -57 c-73 -31 -139 -59 -145 -62 -10 -4
-13 32 -13 159 l0 164 143 61 c78 34 143 62 145 62 1 1 2 -73 2 -163z m-482
97 l132 -56 0 -164 0 -163 -37 16 c-21 8 -62 25 -90 37 l-53 22 0 57 c0 75 -5
85 -56 107 l-44 20 0 90 c0 50 3 91 8 91 4 0 67 -25 140 -57z m-292 -124 c65
-28 122 -54 126 -58 6 -5 -203 -101 -248 -113 -5 -2 -59 17 -118 42 -98 40
-107 46 -104 69 3 20 19 31 103 67 55 24 105 43 111 44 5 0 64 -23 130 -51z
m184 -271 l0 -163 -145 -62 -145 -61 2 165 3 166 135 58 c74 32 138 58 143 59
4 0 7 -73 7 -162z m-418 79 l78 -32 0 -164 c0 -151 -1 -163 -17 -157 -10 4
-53 21 -95 39 l-77 32 -3 70 -3 70 -47 22 c-43 21 -48 26 -48 57 0 31 4 35 50
55 30 13 50 28 50 37 0 18 -2 19 112 -29z m-521 -123 c45 -17 47 -17 103 5
l56 24 75 -33 c42 -18 74 -34 73 -35 -2 -2 -62 -28 -134 -59 l-131 -55 -133
57 -133 57 69 32 c73 34 83 35 155 7z m-124 -143 l138 -59 3 -166 2 -165 -82
35 c-46 20 -111 47 -145 62 l-63 26 0 163 c0 90 2 163 4 163 2 0 66 -27 143
-59z m483 -103 l0 -163 -145 -62 -145 -61 2 165 3 166 135 58 c74 32 138 58
143 59 4 0 7 -73 7 -162z"/>
<path d="M2900 683 c0 -54 -4 -93 -8 -88 -39 55 -129 72 -189 35 -69 -42 -95
-163 -52 -239 29 -51 65 -74 123 -79 42 -3 57 1 88 21 35 24 37 25 43 7 5 -16
43 -38 48 -28 1 1 1 108 -1 236 l-4 232 -24 0 c-24 0 -24 -1 -24 -97z m-70
-88 c49 -25 70 -62 70 -120 0 -62 -23 -98 -74 -115 -45 -15 -98 7 -126 52 -40
63 -11 161 55 188 29 13 43 12 75 -5z"/>
<path d="M2035 636 c-54 -24 -95 -92 -95 -159 0 -42 37 -115 71 -140 56 -40
158 -34 208 12 36 34 39 47 10 54 -15 4 -28 -2 -43 -20 -15 -17 -35 -26 -67
-30 -38 -4 -50 -1 -76 21 -17 14 -36 40 -42 56 l-10 30 141 0 141 0 -6 46
c-12 111 -128 176 -232 130z m125 -41 c28 -14 60 -60 60 -85 0 -6 -41 -10
-114 -10 l-115 0 10 30 c24 68 97 97 159 65z"/>
<path d="M2293 618 c8 -18 40 -93 72 -166 l58 -133 -19 -47 c-14 -33 -26 -48
-42 -50 -24 -4 -32 -41 -9 -43 29 -3 53 4 69 19 13 14 69 145 185 440 4 10 -2
13 -21 10 -25 -3 -32 -15 -81 -138 l-53 -135 -29 65 c-16 36 -42 98 -59 137
-26 66 -32 73 -57 73 -27 0 -27 0 -14 -32z"/>
<path d="M3101 634 c-111 -57 -112 -241 -1 -303 62 -35 148 -25 198 21 49 47
7 71 -46 26 -37 -32 -77 -36 -122 -13 -28 14 -60 60 -60 85 0 6 49 10 140 10
l141 0 -7 38 c-10 57 -33 100 -67 124 -41 29 -129 35 -176 12z m147 -49 c17
-14 35 -39 41 -55 l10 -30 -115 0 c-105 0 -114 2 -114 19 0 24 37 70 64 81 40
17 84 11 114 -15z"/>
<path d="M3444 636 c-38 -17 -50 -34 -35 -49 8 -8 20 -6 46 6 41 20 93 22 116
4 20 -16 39 -51 39 -74 0 -16 -8 -18 -71 -15 -111 6 -159 -25 -159 -100 0 -25
8 -46 24 -65 22 -25 31 -28 88 -28 50 0 70 5 96 23 31 22 32 22 32 4 0 -20 18
-32 46 -32 8 0 14 10 14 25 0 14 -4 25 -10 25 -6 0 -10 38 -10 95 0 112 -15
157 -59 179 -37 19 -115 20 -157 2z m141 -166 c22 -8 26 -15 23 -42 -9 -89
-178 -106 -178 -18 0 56 81 88 155 60z"/>
<path d="M3740 480 l0 -170 25 0 25 0 0 103 c0 82 4 107 19 130 38 58 102 77
141 42 18 -16 20 -31 20 -147 l0 -128 25 0 25 0 0 136 c0 174 -14 203 -98 204
-47 0 -74 -11 -109 -43 l-23 -20 0 31 c0 27 -4 32 -25 32 l-25 0 0 -170z"/>
</g>
</svg>
